<svg width="64" height="72" viewBox="0 0 64 72" fill="none" xmlns="http://www.w3.org/2000/svg">
<path d="M59.4122 22.8305L56.2777 48.57C55.5986 53.97 53.0127 56.82 48.7552 56.82C48.4157 56.82 48.0502 56.7899 47.6846 56.7599C47.7629 56.1899 47.7888 55.6204 47.7888 54.9904V28.9799C47.7888 23.6699 45.4905 21.0002 40.8413 21.0002H14.7998C14.7998 20.9402 14.8259 20.85 14.8259 20.79L15.4528 15.7502C15.8185 12.6902 16.8371 10.4402 18.4043 9.06024C19.9976 7.71024 22.1396 7.23033 24.8038 7.65033L52.3859 12.0903C55.024 12.5403 56.9832 13.6799 58.1847 15.5099C59.3862 17.3099 59.804 19.8005 59.4122 22.8305Z" fill="#2E3EA1"/>
<path opacity="0.4" d="M40.8358 20.9941H12.9716C8.3275 20.9941 6.00549 23.6611 6.00549 28.9951V54.999C6.00549 60.333 8.3275 63 12.9716 63H40.8358C45.4799 63 47.8019 60.333 47.8019 54.999V28.9951C47.8045 23.6581 45.4825 20.9941 40.8358 20.9941Z" fill="#2E3EA1"/>
<path d="M43.649 44.9161L35.5207 35.5506C34.6065 34.5306 33.1177 34.5306 32.2296 35.5506L20.7631 48.7203C20.3112 49.2393 19.5694 49.2393 19.1175 48.7203L16.9494 46.2301C16.0352 45.1801 14.5467 45.1801 13.6586 46.2301L10.1533 50.2562C10.007 50.4242 9.9234 50.6557 9.9234 50.8927V54.9906C9.9234 57.8406 10.4981 58.5004 12.9795 58.5004H40.8489C43.3041 58.5004 43.8788 57.8406 43.8788 54.9906V45.5526C43.8788 45.3126 43.7978 45.0841 43.649 44.9161Z" fill="#2E3EA1"/>
<path d="M17.7644 37.5C16.3252 37.5 15.1473 36.156 15.1473 34.5C15.1473 32.844 16.3045 31.5 17.7437 31.5H17.7644C19.2036 31.5 20.3713 32.844 20.3713 34.5C20.3713 36.156 19.2036 37.5 17.7644 37.5Z" fill="#2E3EA1"/>
</svg>
